<svg xmlns="http://www.w3.org/2000/svg" viewBox="0 -12 512 512">
  <defs/>
  <path d="M455.074219 172.613281l53.996093-53.996093c2.226563-2.222657 3.273438-5.367188 2.828126-8.480469-.441407-3.113281-2.328126-5.839844-5.085938-7.355469l-64.914062-35.644531c-4.839844-2.65625-10.917969-.886719-13.578126 3.953125-2.65625 4.84375-.890624 10.921875 3.953126 13.578125l53.234374 29.230469-46.339843 46.335937L272.5 68.714844l46.335938-46.335938 46.839843 25.722656c4.839844 2.65625 10.921875.890626 13.578125-3.953124 2.660156-4.839844.890625-10.921876-3.953125-13.578126L321.882812 1.234375C317.984375-.90625 313.140625-.214844 310 2.929688l-54 54-54-54c-3.144531-3.144532-7.988281-3.832032-11.882812-1.695313L5.1875 102.78125c-2.757812 1.515625-4.644531 4.238281-5.085938 7.355469-.445312 3.113281.601563 6.257812 2.828126 8.480469l53.996093 53.996093-53.996093 53.992188c-2.226563 2.226562-3.273438 5.367187-2.828126 8.484375.441407 3.113281 2.328126 5.839844 5.085938 7.351562l55.882812 30.6875v102.570313c0 3.652343 1.988282 7.011719 5.1875 8.769531L251.1875 486.011719c1.5.824219 3.15625 1.234375 4.8125 1.234375s3.3125-.410156 4.8125-1.234375L445.742188 384.46875c3.199218-1.757812 5.1875-5.117188 5.1875-8.769531V273.128906l55.882812-30.683594c2.757812-1.515624 4.644531-4.242187 5.085938-7.355468.445312-3.113282-.601563-6.257813-2.828126-8.480469zM256 262.746094L91.847656 172.609375 256 82.46875l164.152344 90.140625zM193.167969 22.378906L239.5 68.714844 72.832031 160.234375l-46.335937-46.335937zM72.839844 184.988281l166.667968 91.519531-46.339843 46.339844-166.671875-91.519531zm358.089844 184.796875L266 460.347656V358.125c0-5.523438-4.476562-10-10-10s-10 4.476562-10 10v102.222656l-164.929688-90.5625v-85.671875l109.046876 59.878907c1.511718.828124 3.167968 1.234374 4.808593 1.234374 2.589844 0 5.152344-1.007812 7.074219-2.929687l54-54 54 54c1.921875 1.925781 4.484375 2.929687 7.074219 2.929687 1.640625 0 3.296875-.40625 4.808593-1.234374l109.046876-59.878907zm-112.09375-46.9375l-46.339844-46.34375 166.667968-91.515625 46.34375 46.335938zm0 0"/>
  <path d="M404.800781 68.175781c2.628907 0 5.199219-1.070312 7.070313-2.933593 1.859375-1.859376 2.929687-4.4375 2.929687-7.066407 0-2.632812-1.070312-5.210937-2.929687-7.070312-1.859375-1.863281-4.441406-2.929688-7.070313-2.929688-2.640625 0-5.210937 1.066407-7.070312 2.929688-1.871094 1.859375-2.929688 4.4375-2.929688 7.070312 0 2.628907 1.058594 5.207031 2.929688 7.066407 1.859375 1.863281 4.441406 2.933593 7.070312 2.933593zm0 0M256 314.925781c-2.628906 0-5.210938 1.066407-7.070312 2.929688-1.859376 1.867187-2.929688 4.4375-2.929688 7.070312 0 2.636719 1.070312 5.207031 2.929688 7.078125 1.859374 1.859375 4.441406 2.921875 7.070312 2.921875s5.210938-1.0625 7.070312-2.921875C264.929688 330.132812 266 327.5625 266 324.925781c0-2.632812-1.070312-5.203125-2.929688-7.070312-1.859374-1.863281-4.441406-2.929688-7.070312-2.929688zm0 0"/>
</svg>
