<svg xmlns="http://www.w3.org/2000/svg" viewBox="0 -31 512.00026 512">
  <defs/>
  <path d="M164.960938 300.003906h.023437c.019531 0 .039063-.003906.058594-.003906H437c6.695312 0 12.582031-4.441406 14.421875-10.878906l60-210c1.292969-4.527344.386719-9.394532-2.445313-13.152344C506.140625 62.210938 501.707031 60 497 60H130.367188l-10.722657-48.253906C118.117188 4.882812 112.03125 0 105 0H15C6.714844 0 0 6.714844 0 15s6.714844 15 15 15h77.96875c1.898438 8.550781 51.3125 230.917969 54.15625 243.710938C131.183594 280.640625 120 296.535156 120 315c0 24.8125 20.1875 45 45 45h272c8.285156 0 15-6.714844 15-15s-6.714844-15-15-15H165c-8.269531 0-15-6.730469-15-15 0-8.257812 6.707031-14.976562 14.960938-14.996094zM477.113281 90l-51.429687 180H177.03125l-40-180zm0 0M150 405c0 24.8125 20.1875 45 45 45s45-20.1875 45-45-20.1875-45-45-45-45 20.1875-45 45zm45-15c8.269531 0 15 6.730469 15 15s-6.730469 15-15 15-15-6.730469-15-15 6.730469-15 15-15zm0 0M362 405c0 24.8125 20.1875 45 45 45s45-20.1875 45-45-20.1875-45-45-45-45 20.1875-45 45zm45-15c8.269531 0 15 6.730469 15 15s-6.730469 15-15 15-15-6.730469-15-15 6.730469-15 15-15zm0 0"/>
</svg>
