<svg xmlns="http://www.w3.org/2000/svg" viewBox="0 0 490.787 490.787">
  <defs/>
  <path fill="#f44336" d="M362.671 490.787c-2.831.005-5.548-1.115-7.552-3.115L120.452 253.006c-4.164-4.165-4.164-10.917 0-15.083L355.119 3.256c4.093-4.237 10.845-4.354 15.083-.262 4.237 4.093 4.354 10.845.262 15.083-.086.089-.173.176-.262.262L143.087 245.454l227.136 227.115c4.171 4.16 4.179 10.914.019 15.085-2.006 2.01-4.731 3.138-7.571 3.133z"/>
  <path d="M362.671 490.787c-2.831.005-5.548-1.115-7.552-3.115L120.452 253.006c-4.164-4.165-4.164-10.917 0-15.083L355.119 3.256c4.093-4.237 10.845-4.354 15.083-.262 4.237 4.093 4.354 10.845.262 15.083-.086.089-.173.176-.262.262L143.087 245.454l227.136 227.115c4.171 4.16 4.179 10.914.019 15.085-2.006 2.01-4.731 3.138-7.571 3.133z"/>
</svg>
